<svg xmlns="http://www.w3.org/2000/svg" xml:space="preserve" style="fill-rule:evenodd;clip-rule:evenodd;stroke-linecap:round;stroke-linejoin:round;stroke-miterlimit:1.5" viewBox="0 0 288 221">
  <path d="M0 0h288v220.405H0z" style="fill:none"/>
  <path d="M279.275 77.684c5.896-3.404 5.896-8.931 0-12.336L177.729 6.721c-5.896-3.404-15.47-3.404-21.366 0L8.725 91.96c-5.896 3.404-5.896 8.931 0 12.335l101.546 58.628c5.896 3.404 15.47 3.404 21.366 0l147.638-85.239Z" style="fill:none;"/>
  <path d="m12.695 106.588 97.576 56.335c5.896 3.404 15.47 3.404 21.366 0l143.668-82.947 3.97 2.293c5.896 3.404 5.896 8.931 0 12.335l-147.638 85.239c-5.896 3.404-15.47 3.404-21.366 0L8.725 121.216c-5.896-3.404-5.896-8.932 0-12.336l3.97-2.292Z" style="fill:none;"/>
  <path d="m12.695 123.508 97.576 56.335c5.896 3.404 15.47 3.404 21.366 0l143.668-82.946 3.97 2.292c5.896 3.404 5.896 8.932 0 12.336l-147.638 85.239c-5.896 3.404-15.47 3.404-21.366 0L8.725 138.136c-5.896-3.404-5.896-8.932 0-12.336l3.97-2.292Z" style="fill:none;"/>
  <path d="m12.695 140.428 97.576 56.336c5.896 3.404 15.47 3.404 21.366 0l143.668-82.947 3.97 2.292c5.896 3.405 5.896 8.932 0 12.336l-147.638 85.239c-5.896 3.404-15.47 3.404-21.366 0L8.725 155.056c-5.896-3.404-5.896-8.931 0-12.335l3.97-2.293ZM134.438 76.544l56.788 8.785-6.098 13.139-73.874-11.429 13.125-28.28 17.086 2.643-7.027 15.142Z" style="fill:none;"/>
</svg>
